<svg width="887" height="100" viewBox="0 0 887 100" fill="none" xmlns="http://www.w3.org/2000/svg">
<path d="M76.9564 27.2671C69.6022 27.2671 64.7431 30.2876 62.3793 32.7827L58.7022 47.7538C56.601 35.0153 47.9336 27.2671 35.8517 27.2671C27.7095 27.2671 23.2445 30.8129 21.1433 32.7827L17.0722 48.5417V29.7623H0V98.0512H17.0722V60.6237C17.4662 49.855 21.7999 42.8947 30.4674 42.8947C39.0035 42.8947 42.0239 49.9864 42.0239 57.2092V98.0512H59.0962V60.361C59.0962 49.1984 63.4299 42.8947 72.2287 42.8947C79.8455 42.8947 84.0479 47.6225 84.0479 57.0779V98.0512H101.12V54.3201C101.12 36.8539 92.0587 27.2671 76.9564 27.2671Z" fill="#2B3D4A"/>
<path d="M115.197 30.4926V98.0512H132.086V30.4926H115.197Z" fill="#2B3D4A"/>
<path d="M186.804 28.0241C178.489 28.0241 173.292 30.7525 169.525 34.78L165.757 50.1106V30.4926H148.867V98.0512H165.757V62.3232C165.757 50.5004 171.473 43.6146 181.347 43.6146C190.702 43.6146 194.729 48.8114 194.729 60.894V98.0512H211.619V58.4256C211.619 38.6777 202.914 28.0241 186.804 28.0241Z" fill="#2B3D4A"/>
<path d="M289.176 62.9728C289.176 42.3154 276.704 28.0241 257.086 28.0241C237.078 28.0241 222.787 43.3548 222.787 64.5318C222.787 85.1891 236.169 100 257.865 100C270.598 100 281.641 95.3229 288.267 85.5789L276.314 74.6656C272.806 82.4608 267.22 85.9686 258.385 85.9686C249.031 85.9686 242.275 81.2915 240.716 69.4688H288.786C289.176 66.8704 289.176 65.0515 289.176 62.9728ZM256.566 42.0555C265.92 42.0555 271.247 48.2918 271.247 57.5161H240.846C242.535 46.7327 248.641 42.0555 256.566 42.0555Z" fill="#2B3D4A"/>
<path d="M337.001 28.8037C330.115 28.8037 325.178 32.4414 322.84 35.0398L319.072 52.7091V30.4926H302.183V98.0512H319.072V65.4412C319.072 52.1894 325.438 45.0437 335.052 45.0437C338.3 45.0437 340.639 45.4335 343.757 46.3429V29.843C341.419 28.9336 339.6 28.8037 337.001 28.8037Z" fill="#2B3D4A"/>
<path d="M405.017 30.4926L387.088 78.3034L369.029 30.4926H350.451L378.124 98.0512H395.923L423.076 30.4926H405.017Z" fill="#2B3D4A"/>
<path d="M507.162 98.0512L496.898 67.7798V30.4926H480.008V37.5083C474.812 31.7918 467.406 28.0241 457.662 28.0241C437.524 28.0241 423.623 43.6146 423.623 64.272C423.623 84.6694 437.654 100 457.792 100C468.186 100 475.331 96.2324 480.268 90.5159L481.437 73.4963L489.363 98.0512H507.162ZM460.91 84.6694C449.607 84.6694 441.162 76.4845 441.162 64.272C441.162 51.7996 449.607 43.3547 460.91 43.3547C471.693 43.3547 480.658 51.5398 480.658 64.272C480.658 76.7443 471.693 84.6694 460.91 84.6694Z" fill="#2B3D4A"/>
<path d="M564.445 30.1415H544.178V22.4762C544.178 14.1613 548.595 10.7834 555.741 10.7834C558.209 10.7834 561.067 11.0432 563.276 11.5629V1.16928C560.418 0.389764 556.52 0 553.532 0C540.54 0 532.225 9.22434 532.225 22.0864V30.1415H520.272V40.6651H532.225V97.7001H544.178V40.6651H564.445V30.1415Z" fill="#E3E0B0"/>
<path d="M609.34 27.9329C589.072 27.9329 573.352 42.6139 573.352 63.7909C573.352 84.9679 589.072 99.6489 609.34 99.6489C629.737 99.6489 645.588 84.9679 645.588 63.7909C645.588 42.6139 629.737 27.9329 609.34 27.9329ZM609.34 38.9761C623.241 38.9761 633.245 48.85 633.245 63.7909C633.245 78.8616 623.241 88.6056 609.34 88.6056C595.698 88.6056 585.565 78.8616 585.565 63.7909C585.565 48.85 595.438 38.9761 609.34 38.9761Z" fill="#E3E0B0"/>
<path d="M692.063 27.9329C671.795 27.9329 656.075 42.6139 656.075 63.7909C656.075 84.9679 671.795 99.6489 692.063 99.6489C712.46 99.6489 728.31 84.9679 728.31 63.7909C728.31 42.6139 712.46 27.9329 692.063 27.9329ZM692.063 38.9761C705.964 38.9761 715.968 48.85 715.968 63.7909C715.968 78.8616 705.964 88.6056 692.063 88.6056C678.421 88.6056 668.287 78.8616 668.287 63.7909C668.287 48.85 678.161 38.9761 692.063 38.9761Z" fill="#E3E0B0"/>
<path d="M820.387 97.7001L810.383 68.468V2.20865H798.431V40.0154C792.974 32.7399 784.399 27.9329 772.966 27.9329C752.309 27.9329 738.797 43.7831 738.797 63.9208C738.797 83.9285 752.309 99.6489 772.966 99.6489C784.659 99.6489 792.844 94.8418 798.041 88.4757L799.34 72.1058L807.785 97.7001H820.387ZM774.915 88.7356C759.974 88.7356 751.01 77.8223 751.01 63.9208C751.01 49.8894 759.974 38.8462 774.915 38.8462C789.336 38.8462 798.821 49.8894 798.821 63.9208C798.821 77.9522 789.336 88.7356 774.915 88.7356Z" fill="#E3E0B0"/>
<path d="M857.214 27.9329C842.533 27.9329 830.19 36.6375 830.19 48.7201C830.19 75.7435 873.584 63.9208 873.584 79.7711C873.584 86.7868 866.958 89.7749 858.383 89.7749C847.47 89.7749 840.194 84.1884 839.674 73.9247L827.982 78.8616C830.06 91.0741 840.974 99.6489 858.383 99.6489C875.273 99.6489 886.446 92.2434 886.446 78.9915C886.446 52.4878 842.533 63.9208 842.533 47.9406C842.533 42.2241 847.989 37.8068 857.214 37.8068C867.477 37.8068 873.584 43.2635 874.103 51.9681L885.536 47.6807C883.847 35.858 872.934 27.9329 857.214 27.9329Z" fill="#E3E0B0"/>
<circle cx="123.622" cy="12.7252" r="10.8852" fill="#2B3D4A"/>
</svg>
