<?xml version="1.0" encoding="utf-8"?>
<svg width="466px" height="190.00003px" viewBox="0 0 466 190.00003" version="1.1" xmlns:xlink="http://www.w3.org/1999/xlink" xmlns="http://www.w3.org/2000/svg">
  <g id="logo-dux">
    <path d="M299.725 140.853L299.725 54.4667L270.638 54.4667L270.638 121.093C270.638 148.453 258.75 164.92 238.009 164.92C220.304 164.92 211.452 154.787 211.452 134.52L211.452 54.4667L182.364 54.4667L182.364 138.32C182.364 170.493 200.828 190 231.18 190C252.68 190 263.809 180.373 270.638 169.987L270.638 143.64L284.043 186.2L314.648 186.2L299.725 140.853ZM161.371 186.2L141.389 128.187L141.389 0L112.302 0L112.302 70.4267C101.932 58.0133 86.7559 49.9067 66.5213 49.9067C26.8109 49.9067 0 80.56 0 120.333C0 159.853 27.0638 190 66.5213 190C87.7676 190 102.691 181.893 112.302 170.24L114.831 137.307L130.513 186.2L161.371 186.2ZM71.8329 163.4C47.0455 163.4 30.099 145.413 30.099 120.333C30.099 94.7466 47.0455 76.2533 71.8329 76.2533C95.6085 76.2533 113.314 94.4933 113.314 120.333C113.314 145.92 95.6085 163.4 71.8329 163.4L71.8329 163.4Z" id="du" fill="#2B3D4A" fill-rule="evenodd" stroke="none" />
    <path d="M466 54.3962L429.578 54.3962L397.202 97.9696L378.738 118.743L326.128 186.13L363.056 186.13L395.938 141.543L414.149 120.516L466 54.3962Z" id="x" fill="#2B3D4A" fill-rule="evenodd" stroke="none" />
    <path d="M397.553 97.9696L365.684 54.3963L329.768 54.3963L379.089 118.743L396.289 141.543L429.17 186.13L465.592 186.13L414.5 120.516L397.553 97.9696Z" id="x-2" fill="#E84752" fill-rule="evenodd" stroke="none" />
  </g>
</svg>