<svg width="710" height="300" viewBox="0 0 710 300" fill="none" xmlns="http://www.w3.org/2000/svg">
<path d="M107.943 35.6752C97.6276 35.6752 90.8121 39.9118 87.4964 43.4117L82.3387 64.4108C79.3915 46.5432 67.2341 35.6752 50.2874 35.6752C38.8668 35.6752 32.6039 40.6486 29.6567 43.4117L23.9464 65.516V39.175H0V134.961H23.9464V82.4627C24.499 67.3581 30.5777 57.5953 42.7351 57.5953C54.7083 57.5953 58.9449 67.5423 58.9449 77.6734V134.961H82.8913V82.0943C82.8913 66.4371 88.97 57.5953 101.312 57.5953C111.995 57.5953 117.89 64.2266 117.89 77.4892V134.961H141.836V73.621C141.836 49.122 129.126 35.6752 107.943 35.6752Z" fill="#2B3D4A"/>
<path d="M161.049 40.5976V134.961H184.64V40.5976H161.049Z" fill="#2B3D4A"/>
<path d="M261.278 37.1497C249.664 37.1497 242.405 40.9605 237.143 46.586L231.88 67.9991V40.5976H208.289V134.961H231.88V85.0571C231.88 68.5435 239.865 58.9258 253.656 58.9258C266.722 58.9258 272.347 66.1845 272.347 83.0609V134.961H295.938V79.613C295.938 52.03 283.78 37.1497 261.278 37.1497Z" fill="#2B3D4A"/>
<path d="M404.616 85.9644C404.616 57.1111 387.195 37.1497 359.793 37.1497C331.847 37.1497 311.886 58.5628 311.886 88.142C311.886 116.995 330.577 137.683 360.882 137.683C378.666 137.683 394.091 131.15 403.346 117.54L386.651 102.296C381.751 113.184 373.948 118.084 361.608 118.084C348.542 118.084 339.106 111.551 336.929 95.0378H404.071C404.616 91.4084 404.616 88.8679 404.616 85.9644ZM359.068 56.7482C372.133 56.7482 379.573 65.4586 379.573 78.3428H337.11C339.469 63.281 347.998 56.7482 359.068 56.7482Z" fill="#2B3D4A"/>
<path d="M471.274 38.2385C461.656 38.2385 454.761 43.3196 451.494 46.9489L446.232 71.6285V40.5976H422.641V134.961H446.232V89.4123C446.232 70.9026 455.124 60.9219 468.552 60.9219C473.089 60.9219 476.355 61.4663 480.71 62.7366V39.6902C477.444 38.42 474.903 38.2385 471.274 38.2385Z" fill="#2B3D4A"/>
<path d="M567.295 40.5976L542.253 107.378L517.029 40.5976H491.079L529.732 134.961H554.593L592.519 40.5976H567.295Z" fill="#2B3D4A"/>
<path d="M709.679 134.961L695.343 92.6787V40.5976H671.753V50.3968C664.494 42.4123 654.15 37.1497 640.54 37.1497C612.413 37.1497 592.996 58.9258 592.996 87.7791C592.996 116.269 612.594 137.683 640.722 137.683C655.239 137.683 665.22 132.42 672.115 124.435L673.749 100.663L684.818 134.961H709.679ZM645.077 116.269C629.289 116.269 617.494 104.837 617.494 87.7791C617.494 70.3582 629.289 58.5628 645.077 58.5628C660.139 58.5628 672.66 69.9953 672.66 87.7791C672.66 105.2 660.139 116.269 645.077 116.269Z" fill="#2B3D4A"/>
<path d="M61.9232 202.915H33.6143V192.209C33.6143 180.595 39.7842 175.876 49.7649 175.876C53.2128 175.876 57.2051 176.239 60.29 176.965V162.448C56.2977 161.359 50.8537 160.815 46.68 160.815C28.5332 160.815 16.9193 173.699 16.9193 191.664V202.915H0.224346V217.614H16.9193V297.278H33.6143V217.614H61.9232V202.915Z" fill="#E3E0B0"/>
<path d="M124.63 199.83C96.3212 199.83 74.3636 220.336 74.3636 249.915C74.3636 279.494 96.3212 300 124.63 300C153.12 300 175.259 279.494 175.259 249.915C175.259 220.336 153.12 199.83 124.63 199.83ZM124.63 215.255C144.047 215.255 158.02 229.046 158.02 249.915C158.02 270.965 144.047 284.575 124.63 284.575C105.576 284.575 91.4216 270.965 91.4216 249.915C91.4216 229.046 105.213 215.255 124.63 215.255Z" fill="#E3E0B0"/>
<path d="M240.174 199.83C211.865 199.83 189.907 220.336 189.907 249.915C189.907 279.494 211.865 300 240.174 300C268.664 300 290.803 279.494 290.803 249.915C290.803 220.336 268.664 199.83 240.174 199.83ZM240.174 215.255C259.591 215.255 273.564 229.046 273.564 249.915C273.564 270.965 259.591 284.575 240.174 284.575C221.12 284.575 206.965 270.965 206.965 249.915C206.965 229.046 220.757 215.255 240.174 215.255Z" fill="#E3E0B0"/>
<path d="M419.412 297.278L405.439 256.448V163.9H388.744V216.707C381.123 206.544 369.146 199.83 353.177 199.83C324.323 199.83 305.451 221.969 305.451 250.097C305.451 278.043 324.323 300 353.177 300C369.509 300 380.941 293.286 388.2 284.394L390.015 261.529L401.81 297.278H419.412ZM355.899 284.757C335.03 284.757 322.509 269.514 322.509 250.097C322.509 230.498 335.03 215.073 355.899 215.073C376.042 215.073 389.289 230.498 389.289 250.097C389.289 269.695 376.042 284.757 355.899 284.757Z" fill="#E3E0B0"/>
<path d="M470.85 199.83C450.344 199.83 433.105 211.988 433.105 228.865C433.105 266.61 493.715 250.097 493.715 272.236C493.715 282.035 484.46 286.209 472.483 286.209C457.24 286.209 447.078 278.405 446.352 264.07L430.02 270.965C432.923 288.023 448.166 300 472.483 300C496.074 300 511.68 289.656 511.68 271.147C511.68 234.127 450.344 250.097 450.344 227.776C450.344 219.792 457.966 213.622 470.85 213.622C485.186 213.622 493.715 221.243 494.44 233.402L510.41 227.413C508.05 210.9 492.807 199.83 470.85 199.83Z" fill="#E3E0B0"/>
<circle cx="173.098" cy="15.2743" r="15.2743" fill="#2B3D4A"/>
</svg>
