<svg width="567" height="601" viewBox="0 0 567 601" fill="none" xmlns="http://www.w3.org/2000/svg">
<path opacity="0.05" d="M283.4 600.799C439.917 600.799 566.8 474.756 566.8 319.274C566.8 163.791 439.917 37.748 283.4 37.748C126.882 37.748 0 163.791 0 319.274C0 474.756 126.882 600.799 283.4 600.799Z" fill="#E74753"/>
<path opacity="0.07" d="M277.629 489.66C373.909 489.66 451.96 412.125 451.96 316.481C451.96 220.838 373.909 143.303 277.629 143.303C181.348 143.303 103.297 220.838 103.297 316.481C103.297 412.125 181.348 489.66 277.629 489.66Z" fill="#E74753"/>
<path d="M280.736 532.587C318.538 532.587 349.181 526.926 349.181 519.944C349.181 512.961 318.538 507.301 280.736 507.301C242.935 507.301 212.291 512.961 212.291 519.944C212.291 526.926 242.935 532.587 280.736 532.587Z" fill="#430B48"/>
<path d="M259.277 434.311C241.889 434.311 227.83 447.1 227.83 462.978V464.007C227.83 494.952 250.99 519.944 279.552 519.944C308.114 519.944 331.274 494.879 331.274 464.007V462.978C331.274 447.174 317.215 434.311 299.826 434.311H259.277Z" fill="#E0E0E0"/>
<path d="M279.626 454.451C299.774 454.451 316.106 449.942 316.106 444.381C316.106 438.819 299.774 434.311 279.626 434.311C259.48 434.311 243.147 438.819 243.147 444.381C243.147 449.942 259.48 454.451 279.626 454.451Z" fill="#CFC3D8"/>
<path d="M279.626 450.923C294.665 450.923 306.856 447.566 306.856 443.425C306.856 439.285 294.665 435.928 279.626 435.928C264.587 435.928 252.396 439.285 252.396 443.425C252.396 447.566 264.587 450.923 279.626 450.923Z" fill="#430B48"/>
<path d="M279.626 496.348C253.802 496.348 232.417 483.999 228.496 457.243C228.052 459.081 227.83 460.992 227.83 462.977V464.006C227.83 494.951 250.99 519.943 279.552 519.943C308.114 519.943 331.274 494.878 331.274 464.006V462.977C331.274 460.992 331.052 459.081 330.608 457.243C326.835 483.999 305.45 496.348 279.626 496.348Z" fill="#CFC3D8"/>
<path d="M259.277 434.311C241.889 434.311 227.83 447.1 227.83 462.978V464.007C227.83 494.952 250.99 519.944 279.552 519.944C308.114 519.944 331.274 494.879 331.274 464.007V462.978C331.274 447.174 317.215 434.311 299.826 434.311H259.277Z" stroke="#430B48" stroke-width="8" stroke-miterlimit="10" stroke-linecap="round" stroke-linejoin="round"/>
<path d="M360.873 158.519H387.511" stroke="#430B48" stroke-width="8" stroke-miterlimit="10" stroke-linecap="round" stroke-linejoin="round"/>
<path d="M399.35 170.279C405.889 170.279 411.189 165.013 411.189 158.518C411.189 152.023 405.889 146.757 399.35 146.757C392.811 146.757 387.511 152.023 387.511 158.518C387.511 165.013 392.811 170.279 399.35 170.279Z" fill="#BFB0CC"/>
<path d="M399.35 170.279C405.889 170.279 411.189 165.013 411.189 158.518C411.189 152.023 405.889 146.757 399.35 146.757C392.811 146.757 387.511 152.023 387.511 158.518C387.511 165.013 392.811 170.279 399.35 170.279Z" stroke="#430B48" stroke-width="8" stroke-miterlimit="10" stroke-linecap="round" stroke-linejoin="round"/>
<path d="M370.862 333.021C370.196 327.508 370.418 321.995 371.454 316.556C372.12 313.762 375.154 311.557 377.818 311.704C380.555 311.778 383.367 314.13 383.885 316.997C384.551 322.51 384.329 328.022 383.293 333.462C382.627 336.255 379.593 338.46 376.93 338.313C374.192 338.24 371.306 335.887 370.862 333.021Z" fill="#4B1151"/>
<path d="M386.622 332.726C384.773 327.654 383.589 322.288 383.441 316.848C383.367 314.055 385.808 311.262 388.472 310.748C391.136 310.233 394.392 311.85 395.428 314.496C397.426 319.568 398.462 324.934 398.61 330.373C398.684 333.167 396.242 335.96 393.578 336.474C390.988 336.989 387.732 335.372 386.622 332.726Z" fill="#430B48"/>
<path d="M401.644 328.977C398.684 324.567 396.316 319.716 394.91 314.57C394.17 311.924 395.872 308.69 398.24 307.661C400.756 306.558 404.16 307.293 405.713 309.572C408.747 313.909 411.041 318.833 412.447 323.979C413.187 326.625 411.485 329.859 409.117 330.888C406.749 331.991 403.272 331.182 401.644 328.977Z" fill="#4B1151"/>
<path d="M415.11 321.994C411.263 318.465 407.933 314.349 405.417 309.792C404.085 307.366 405.047 303.985 407.045 302.441C409.265 300.75 412.594 300.824 414.666 302.588C418.588 306.043 421.844 310.233 424.36 314.79C425.692 317.216 424.73 320.597 422.732 322.141C420.66 323.758 417.182 323.758 415.11 321.994Z" fill="#4B1151"/>
<path d="M426.579 312.291C422.14 309.791 417.996 306.631 414.592 302.808C412.816 300.824 412.89 297.369 414.444 295.458C416.22 293.326 419.328 292.665 421.696 293.914C426.21 296.34 430.279 299.574 433.683 303.396C435.459 305.381 435.385 308.836 433.831 310.747C432.277 312.732 428.947 313.54 426.579 312.291Z" fill="#4B1151"/>
<path d="M435.607 300.236C430.797 298.84 426.136 296.782 421.992 293.915C419.846 292.445 419.106 289.137 420.142 286.932C421.4 284.433 424.138 283.11 426.728 283.845C431.611 285.168 436.199 287.3 440.343 290.166C442.488 291.636 443.228 294.944 442.193 297.149C441.157 299.354 438.123 300.898 435.607 300.236Z" fill="#4B1151"/>
<path d="M441.674 286.269C436.717 286.049 431.833 285.24 427.245 283.476C424.878 282.594 423.398 279.58 423.842 277.228C424.508 274.435 426.802 272.671 429.317 272.744C434.275 272.818 439.159 273.773 443.746 275.538C446.114 276.42 447.594 279.433 447.15 281.786C446.78 284.064 444.264 286.269 441.674 286.269Z" fill="#4B1151"/>
<path d="M443.747 271.863C438.937 272.157 434.127 271.716 429.466 270.539C427.024 269.804 425.322 267.158 425.544 264.806C425.914 261.939 427.986 260.175 430.501 259.881C435.311 259.587 440.121 260.028 444.782 261.204C447.224 261.939 448.926 264.586 448.704 266.938C448.482 269.29 446.262 271.642 443.747 271.863Z" fill="#4B1151"/>
<path d="M370.862 333.021C370.196 327.508 370.418 321.995 371.454 316.556C372.12 313.762 375.154 311.557 377.818 311.704C380.555 311.778 383.367 314.13 383.885 316.997C384.551 322.51 384.329 328.022 383.293 333.462C382.627 336.255 379.593 338.46 376.93 338.313C374.192 338.24 371.306 335.887 370.862 333.021Z" stroke="#430B48" stroke-width="6" stroke-miterlimit="10" stroke-linecap="round" stroke-linejoin="round"/>
<path d="M386.622 332.726C384.773 327.654 383.589 322.288 383.441 316.848C383.367 314.055 385.808 311.262 388.472 310.748C391.136 310.233 394.392 311.85 395.428 314.496C397.426 319.568 398.462 324.934 398.61 330.373C398.684 333.167 396.242 335.96 393.578 336.474C390.988 336.989 387.732 335.372 386.622 332.726Z" stroke="#430B48" stroke-width="6" stroke-miterlimit="10" stroke-linecap="round" stroke-linejoin="round"/>
<path d="M401.644 328.977C398.684 324.567 396.316 319.716 394.91 314.57C394.17 311.924 395.872 308.69 398.24 307.661C400.756 306.558 404.16 307.293 405.713 309.572C408.747 313.909 411.041 318.833 412.447 323.979C413.187 326.625 411.485 329.859 409.117 330.888C406.749 331.991 403.272 331.182 401.644 328.977Z" stroke="#430B48" stroke-width="6" stroke-miterlimit="10" stroke-linecap="round" stroke-linejoin="round"/>
<path d="M415.11 321.994C411.263 318.465 407.933 314.349 405.417 309.792C404.085 307.366 405.047 303.985 407.045 302.441C409.265 300.75 412.594 300.824 414.666 302.588C418.588 306.043 421.844 310.233 424.36 314.79C425.692 317.216 424.73 320.597 422.732 322.141C420.66 323.758 417.182 323.758 415.11 321.994Z" stroke="#430B48" stroke-width="6" stroke-miterlimit="10" stroke-linecap="round" stroke-linejoin="round"/>
<path d="M426.579 312.291C422.14 309.791 417.996 306.631 414.592 302.808C412.816 300.824 412.89 297.369 414.444 295.458C416.22 293.326 419.328 292.665 421.696 293.914C426.21 296.34 430.279 299.574 433.683 303.396C435.459 305.381 435.385 308.836 433.831 310.747C432.277 312.732 428.947 313.54 426.579 312.291Z" stroke="#430B48" stroke-width="6" stroke-miterlimit="10" stroke-linecap="round" stroke-linejoin="round"/>
<path d="M435.607 300.236C430.797 298.84 426.136 296.782 421.992 293.915C419.846 292.445 419.106 289.137 420.142 286.932C421.4 284.433 424.138 283.11 426.728 283.845C431.611 285.168 436.199 287.3 440.343 290.166C442.488 291.636 443.228 294.944 442.193 297.149C441.157 299.354 438.123 300.898 435.607 300.236Z" stroke="#430B48" stroke-width="6" stroke-miterlimit="10" stroke-linecap="round" stroke-linejoin="round"/>
<path d="M441.674 286.269C436.717 286.049 431.833 285.24 427.245 283.476C424.878 282.594 423.398 279.58 423.842 277.228C424.508 274.435 426.802 272.671 429.317 272.744C434.275 272.818 439.159 273.773 443.746 275.538C446.114 276.42 447.594 279.433 447.15 281.786C446.78 284.064 444.264 286.269 441.674 286.269Z" stroke="#430B48" stroke-width="6" stroke-miterlimit="10" stroke-linecap="round" stroke-linejoin="round"/>
<path d="M443.747 271.863C438.937 272.157 434.127 271.716 429.466 270.539C427.024 269.804 425.322 267.158 425.544 264.806C425.914 261.939 427.986 260.175 430.501 259.881C435.311 259.587 440.121 260.028 444.782 261.204C447.224 261.939 448.926 264.586 448.704 266.938C448.482 269.29 446.262 271.642 443.747 271.863Z" stroke="#430B48" stroke-width="6" stroke-miterlimit="10" stroke-linecap="round" stroke-linejoin="round"/>
<path d="M445.448 222.174V236.507C445.448 240.403 442.267 243.564 438.345 243.564C434.423 243.564 431.241 240.403 431.241 236.507V227.099H416.96V239.154C416.96 250.914 426.506 260.397 438.345 260.397C450.184 260.397 459.729 250.914 459.729 239.154V222.174H445.448Z" fill="#CFC3D8"/>
<path d="M434.053 242.168C432.351 240.845 431.241 238.86 431.241 236.582V230.481C431.241 229.893 431.167 229.231 431.167 228.643C431.167 228.128 431.167 227.687 431.167 227.173H416.96V239.228C416.96 250.989 426.506 260.471 438.345 260.471C442.193 260.471 445.818 259.442 448.926 257.678C442.415 254.517 437.087 249.004 434.053 242.168Z" fill="#BFB0CC"/>
<path d="M445.448 222.174V236.507C445.448 240.403 442.267 243.564 438.345 243.564C434.423 243.564 431.241 240.403 431.241 236.507V227.099H416.96V239.154C416.96 250.914 426.506 260.397 438.345 260.397C450.184 260.397 459.729 250.914 459.729 239.154V222.174H445.448Z" stroke="#430B48" stroke-width="8" stroke-miterlimit="10" stroke-linecap="round" stroke-linejoin="round"/>
<path d="M188.39 333.021C189.056 327.508 188.834 321.995 187.798 316.556C187.133 313.762 184.099 311.557 181.435 311.704C178.697 311.778 175.885 314.13 175.367 316.997C174.701 322.51 174.923 328.022 175.959 333.462C176.625 336.255 179.659 338.46 182.323 338.313C185.061 338.24 187.946 335.887 188.39 333.021Z" fill="#4B1151"/>
<path d="M172.556 332.726C174.406 327.654 175.589 322.288 175.737 316.848C175.811 314.055 173.37 311.262 170.706 310.748C168.042 310.233 164.786 311.85 163.75 314.496C161.752 319.568 160.717 324.934 160.569 330.373C160.495 333.167 162.936 335.96 165.6 336.474C168.264 336.989 171.52 335.372 172.556 332.726Z" fill="#430B48"/>
<path d="M157.609 328.977C160.569 324.567 162.937 319.716 164.343 314.57C165.082 311.924 163.381 308.69 161.013 307.661C158.497 306.558 155.093 307.293 153.539 309.572C150.506 313.909 148.212 318.833 146.806 323.979C146.066 326.625 147.768 329.859 150.136 330.888C152.429 331.991 155.981 331.182 157.609 328.977Z" fill="#4B1151"/>
<path d="M144.142 321.994C147.99 318.465 151.319 314.349 153.835 309.792C155.167 307.366 154.205 303.985 152.207 302.441C149.987 300.75 146.658 300.824 144.586 302.588C140.664 306.043 137.408 310.233 134.893 314.79C133.561 317.216 134.523 320.597 136.52 322.141C138.518 323.758 142.07 323.758 144.142 321.994Z" fill="#4B1151"/>
<path d="M132.672 312.291C137.112 309.791 141.256 306.631 144.66 302.808C146.435 300.824 146.361 297.369 144.808 295.458C143.032 293.326 139.924 292.665 137.556 293.914C133.042 296.34 128.973 299.574 125.569 303.396C123.793 305.381 123.867 308.836 125.421 310.747C126.975 312.732 130.305 313.54 132.672 312.291Z" fill="#4B1151"/>
<path d="M123.646 300.236C128.455 298.84 133.117 296.782 137.261 293.915C139.406 292.445 140.146 289.137 139.11 286.932C137.853 284.433 135.115 283.11 132.525 283.845C127.641 285.168 123.054 287.3 118.91 290.166C116.764 291.636 116.024 294.944 117.06 297.149C118.096 299.354 121.056 300.898 123.646 300.236Z" fill="#4B1151"/>
<path d="M117.504 286.269C122.461 286.049 127.345 285.24 131.933 283.476C134.301 282.594 135.781 279.58 135.337 277.228C134.671 274.435 132.377 272.671 129.861 272.744C124.903 272.818 120.02 273.773 115.432 275.538C113.064 276.42 111.584 279.433 112.028 281.786C112.472 284.064 114.988 286.269 117.504 286.269Z" fill="#4B1151"/>
<path d="M115.432 271.863C120.242 272.157 125.051 271.716 129.713 270.539C132.155 269.804 133.857 267.158 133.635 264.806C133.265 261.939 131.193 260.175 128.677 259.881C123.868 259.587 119.058 260.028 114.396 261.204C111.954 261.939 110.253 264.586 110.475 266.938C110.771 269.29 112.916 271.642 115.432 271.863Z" fill="#4B1151"/>
<path d="M188.39 333.021C189.056 327.508 188.834 321.995 187.798 316.556C187.133 313.762 184.099 311.557 181.435 311.704C178.697 311.778 175.885 314.13 175.367 316.997C174.701 322.51 174.923 328.022 175.959 333.462C176.625 336.255 179.659 338.46 182.323 338.313C185.061 338.24 187.946 335.887 188.39 333.021Z" stroke="#430B48" stroke-width="6" stroke-miterlimit="10" stroke-linecap="round" stroke-linejoin="round"/>
<path d="M172.556 332.726C174.406 327.654 175.589 322.288 175.737 316.848C175.811 314.055 173.37 311.262 170.706 310.748C168.042 310.233 164.786 311.85 163.75 314.496C161.752 319.568 160.717 324.934 160.569 330.373C160.495 333.167 162.936 335.96 165.6 336.474C168.264 336.989 171.52 335.372 172.556 332.726Z" stroke="#430B48" stroke-width="6" stroke-miterlimit="10" stroke-linecap="round" stroke-linejoin="round"/>
<path d="M157.609 328.977C160.569 324.567 162.937 319.716 164.343 314.57C165.082 311.924 163.381 308.69 161.013 307.661C158.497 306.558 155.093 307.293 153.539 309.572C150.506 313.909 148.212 318.833 146.806 323.979C146.066 326.625 147.768 329.859 150.136 330.888C152.429 331.991 155.981 331.182 157.609 328.977Z" stroke="#430B48" stroke-width="6" stroke-miterlimit="10" stroke-linecap="round" stroke-linejoin="round"/>
<path d="M144.142 321.994C147.99 318.465 151.319 314.349 153.835 309.792C155.167 307.366 154.205 303.985 152.207 302.441C149.987 300.75 146.658 300.824 144.586 302.588C140.664 306.043 137.408 310.233 134.893 314.79C133.561 317.216 134.523 320.597 136.52 322.141C138.518 323.758 142.07 323.758 144.142 321.994Z" stroke="#430B48" stroke-width="6" stroke-miterlimit="10" stroke-linecap="round" stroke-linejoin="round"/>
<path d="M132.672 312.291C137.112 309.791 141.256 306.631 144.66 302.808C146.435 300.824 146.361 297.369 144.808 295.458C143.032 293.326 139.924 292.665 137.556 293.914C133.042 296.34 128.973 299.574 125.569 303.396C123.793 305.381 123.867 308.836 125.421 310.747C126.975 312.732 130.305 313.54 132.672 312.291Z" stroke="#430B48" stroke-width="6" stroke-miterlimit="10" stroke-linecap="round" stroke-linejoin="round"/>
<path d="M123.646 300.236C128.455 298.84 133.117 296.782 137.261 293.915C139.406 292.445 140.146 289.137 139.11 286.932C137.853 284.433 135.115 283.11 132.525 283.845C127.641 285.168 123.054 287.3 118.91 290.166C116.764 291.636 116.024 294.944 117.06 297.149C118.096 299.354 121.056 300.898 123.646 300.236Z" stroke="#430B48" stroke-width="6" stroke-miterlimit="10" stroke-linecap="round" stroke-linejoin="round"/>
<path d="M117.504 286.269C122.461 286.049 127.345 285.24 131.933 283.476C134.301 282.594 135.781 279.58 135.337 277.228C134.671 274.435 132.377 272.671 129.861 272.744C124.903 272.818 120.02 273.773 115.432 275.538C113.064 276.42 111.584 279.433 112.028 281.786C112.472 284.064 114.988 286.269 117.504 286.269Z" stroke="#430B48" stroke-width="6" stroke-miterlimit="10" stroke-linecap="round" stroke-linejoin="round"/>
<path d="M115.432 271.863C120.242 272.157 125.051 271.716 129.713 270.539C132.155 269.804 133.857 267.158 133.635 264.806C133.265 261.939 131.193 260.175 128.677 259.881C123.868 259.587 119.058 260.028 114.396 261.204C111.954 261.939 110.253 264.586 110.475 266.938C110.771 269.29 112.916 271.642 115.432 271.863Z" stroke="#430B48" stroke-width="6" stroke-miterlimit="10" stroke-linecap="round" stroke-linejoin="round"/>
<path d="M113.73 222.174V236.507C113.73 240.403 116.911 243.564 120.833 243.564C124.755 243.564 127.937 240.403 127.937 236.507V227.099H142.218V239.154C142.218 250.914 132.672 260.397 120.833 260.397C108.994 260.397 99.4487 250.914 99.4487 239.154V222.174H113.73Z" fill="#CFC3D8"/>
<path d="M125.199 242.168C126.901 240.845 128.011 238.86 128.011 236.582V230.481C128.011 229.893 128.085 229.231 128.085 228.643C128.085 228.128 128.085 227.687 128.085 227.173H142.292V239.228C142.292 250.989 132.747 260.471 120.907 260.471C117.06 260.471 113.434 259.442 110.326 257.678C116.838 254.517 122.165 249.004 125.199 242.168Z" fill="#BFB0CC"/>
<path d="M113.73 222.174V236.507C113.73 240.403 116.911 243.564 120.833 243.564C124.755 243.564 127.937 240.403 127.937 236.507V227.099H142.218V239.154C142.218 250.914 132.672 260.397 120.833 260.397C108.994 260.397 99.4487 250.914 99.4487 239.154V222.174H113.73Z" stroke="#430B48" stroke-width="8" stroke-miterlimit="10" stroke-linecap="round" stroke-linejoin="round"/>
<path d="M358.06 188.654H346.221V128.38H358.06C361.316 128.38 363.98 131.026 363.98 134.26V182.774C363.98 186.082 361.316 188.654 358.06 188.654Z" fill="#BFB0CC"/>
<path d="M358.06 128.38H346.221V136.465H358.06C361.316 136.465 363.98 139.112 363.98 142.346V134.26C363.98 131.026 361.316 128.38 358.06 128.38Z" fill="white"/>
<path d="M358.06 188.654H346.221V128.38H358.06C361.316 128.38 363.98 131.026 363.98 134.26V182.774C363.98 186.082 361.316 188.654 358.06 188.654Z" stroke="#430B48" stroke-width="8" stroke-miterlimit="10" stroke-linecap="round" stroke-linejoin="round"/>
<path d="M198.38 158.519H171.742" stroke="#430B48" stroke-width="8" stroke-miterlimit="10" stroke-linecap="round" stroke-linejoin="round"/>
<path d="M159.903 170.279C166.442 170.279 171.742 165.013 171.742 158.518C171.742 152.023 166.442 146.757 159.903 146.757C153.364 146.757 148.063 152.023 148.063 158.518C148.063 165.013 153.364 170.279 159.903 170.279Z" fill="#BFB0CC"/>
<path d="M159.903 170.279C166.442 170.279 171.742 165.013 171.742 158.518C171.742 152.023 166.442 146.757 159.903 146.757C153.364 146.757 148.063 152.023 148.063 158.518C148.063 165.013 153.364 170.279 159.903 170.279Z" stroke="#430B48" stroke-width="8" stroke-miterlimit="10" stroke-linecap="round" stroke-linejoin="round"/>
<path d="M201.192 188.654H213.031V128.38H201.192C197.936 128.38 195.272 131.026 195.272 134.26V182.774C195.272 186.082 197.936 188.654 201.192 188.654Z" fill="#BFB0CC"/>
<path d="M201.192 128.38C197.936 128.38 195.272 131.026 195.272 134.26V142.346C195.272 139.112 197.936 136.465 201.192 136.465H213.031V128.38H201.192Z" fill="#E6EEF1"/>
<path d="M201.192 188.654H213.031V128.38H201.192C197.936 128.38 195.272 131.026 195.272 134.26V182.774C195.272 186.082 197.936 188.654 201.192 188.654Z" stroke="#430B48" stroke-width="8" stroke-miterlimit="10" stroke-linecap="round" stroke-linejoin="round"/>
<path d="M358.06 188.654H346.221V128.38H358.06C361.316 128.38 363.98 131.026 363.98 134.26V182.774C363.98 186.082 361.316 188.654 358.06 188.654Z" stroke="#430B48" stroke-width="8" stroke-miterlimit="10" stroke-linecap="round" stroke-linejoin="round"/>
<path d="M201.192 188.654H213.031V128.38H201.192C197.936 128.38 195.272 131.026 195.272 134.26V182.774C195.272 186.082 197.936 188.654 201.192 188.654Z" stroke="#430B48" stroke-width="8" stroke-miterlimit="10" stroke-linecap="round" stroke-linejoin="round"/>
<path d="M319.584 227.613H239.669C223.316 227.613 210.071 214.455 210.071 198.211V118.825C210.071 102.58 223.316 89.4229 239.669 89.4229H319.584C335.936 89.4229 349.181 102.58 349.181 118.825V198.211C349.181 214.455 335.936 227.613 319.584 227.613Z" fill="#E0E0E0"/>
<path d="M319.584 227.613H239.669C223.316 227.613 210.071 214.455 210.071 198.211V118.825C210.071 102.58 223.316 89.4229 239.669 89.4229H319.584C335.936 89.4229 349.181 102.58 349.181 118.825V198.211C349.181 214.455 335.936 227.613 319.584 227.613Z" fill="#E0E0E0"/>
<path d="M319.584 227.613H239.669C223.316 227.613 210.071 214.455 210.071 198.211V118.825C210.071 102.58 223.316 89.4229 239.669 89.4229H319.584C335.936 89.4229 349.181 102.58 349.181 118.825V198.211C349.181 214.455 335.936 227.613 319.584 227.613Z" fill="#E0E0E0"/>
<path d="M319.584 89.4229H239.669C223.316 89.4229 210.071 102.58 210.071 118.825V126.102C210.071 109.857 223.316 96.6999 239.669 96.6999H319.584C335.936 96.6999 349.181 109.857 349.181 126.102V118.825C349.181 102.58 335.936 89.4229 319.584 89.4229Z" fill="white"/>
<path d="M319.584 215.558H239.669C223.316 215.558 210.071 206.003 210.071 189.758V198.211C210.071 214.456 223.316 227.613 239.669 227.613H319.584C335.936 227.613 349.181 214.456 349.181 198.211V189.758C349.181 206.076 335.936 215.558 319.584 215.558Z" fill="#BFB0CC"/>
<path d="M319.584 227.613H239.669C223.316 227.613 210.071 214.455 210.071 198.211V118.825C210.071 102.58 223.316 89.4229 239.669 89.4229H319.584C335.936 89.4229 349.181 102.58 349.181 118.825V198.211C349.181 214.455 335.936 227.613 319.584 227.613Z" stroke="#430B48" stroke-width="8" stroke-miterlimit="10" stroke-linecap="round" stroke-linejoin="round"/>
<path d="M279.626 105.593C295.973 105.593 309.224 98.3531 309.224 89.4222C309.224 80.4913 295.973 73.251 279.626 73.251C263.28 73.251 250.028 80.4913 250.028 89.4222C250.028 98.3531 263.28 105.593 279.626 105.593Z" fill="#FEA74A"/>
<path d="M279.626 105.593C295.973 105.593 309.224 98.3531 309.224 89.4222C309.224 80.4913 295.973 73.251 279.626 73.251C263.28 73.251 250.028 80.4913 250.028 89.4222C250.028 98.3531 263.28 105.593 279.626 105.593Z" fill="#BBC6CC"/>
<path d="M279.626 103.316C295.973 103.316 309.224 97.0963 309.224 89.4238C309.224 81.7513 295.973 75.5312 279.626 75.5312C263.28 75.5312 250.028 81.7513 250.028 89.4238C250.028 97.0963 263.28 103.316 279.626 103.316Z" fill="#E0E0E0"/>
<path d="M308.262 86.1143C306.042 93.8323 293.833 96.0375 279.034 96.0375C265.271 96.0375 253.728 94.6409 250.398 87.7314C250.176 88.5399 250.028 86.4083 250.028 87.2903C250.028 96.1845 263.273 103.388 279.626 103.388C295.979 103.388 309.224 96.1845 309.224 87.2903C309.224 85.8202 308.854 87.3638 308.262 86.1143Z" fill="#BFB0CC"/>
<path d="M279.626 103.316C295.973 103.316 309.224 97.0963 309.224 89.4238C309.224 81.7513 295.973 75.5312 279.626 75.5312C263.28 75.5312 250.028 81.7513 250.028 89.4238C250.028 97.0963 263.28 103.316 279.626 103.316Z" stroke="#430B48" stroke-width="8" stroke-miterlimit="10" stroke-linecap="round" stroke-linejoin="round"/>
<path d="M279.626 188.876C296.83 188.876 310.778 175.021 310.778 157.93C310.778 140.839 296.83 126.984 279.626 126.984C262.421 126.984 248.474 140.839 248.474 157.93C248.474 175.021 262.421 188.876 279.626 188.876Z" fill="#CFC3D8" stroke="#CFC3D8" stroke-width="8" stroke-miterlimit="10" stroke-linecap="round" stroke-linejoin="round"/>
<path d="M279.626 183.951C296.83 183.951 310.778 170.096 310.778 153.005C310.778 135.915 296.83 122.06 279.626 122.06C262.421 122.06 248.474 135.915 248.474 153.005C248.474 170.096 262.421 183.951 279.626 183.951Z" fill="#E6EEF1"/>
<path d="M279.626 183.951C296.83 183.951 310.778 170.096 310.778 153.005C310.778 135.915 296.83 122.06 279.626 122.06C262.421 122.06 248.474 135.915 248.474 153.005C248.474 170.096 262.421 183.951 279.626 183.951Z" stroke="#430B48" stroke-width="8" stroke-miterlimit="10" stroke-linecap="round" stroke-linejoin="round"/>
<path d="M279.034 175.277C287.575 175.277 294.499 168.399 294.499 159.914C294.499 151.43 287.575 144.552 279.034 144.552C270.493 144.552 263.569 151.43 263.569 159.914C263.569 168.399 270.493 175.277 279.034 175.277Z" fill="#23B5E2"/>
<path d="M279.034 175.277C287.575 175.277 294.499 168.399 294.499 159.914C294.499 151.43 287.575 144.552 279.034 144.552C270.493 144.552 263.569 151.43 263.569 159.914C263.569 168.399 270.493 175.277 279.034 175.277Z" stroke="#430B48" stroke-width="8" stroke-miterlimit="10" stroke-linecap="round" stroke-linejoin="round"/>
<path d="M279.034 168.074C283.571 168.074 287.248 164.422 287.248 159.915C287.248 155.409 283.571 151.756 279.034 151.756C274.498 151.756 270.821 155.409 270.821 159.915C270.821 164.422 274.498 168.074 279.034 168.074Z" fill="#430B48"/>
<path d="M312.332 203.797V209.677" stroke="#BBC6CC" stroke-width="8" stroke-miterlimit="10" stroke-linecap="round" stroke-linejoin="round"/>
<path d="M301.38 202.621V210.927" stroke="#BBC6CC" stroke-width="8" stroke-miterlimit="10" stroke-linecap="round" stroke-linejoin="round"/>
<path d="M290.503 201.372V212.177" stroke="#BBC6CC" stroke-width="8" stroke-miterlimit="10" stroke-linecap="round" stroke-linejoin="round"/>
<path d="M279.626 200.122V213.353" stroke="#BBC6CC" stroke-width="8" stroke-miterlimit="10" stroke-linecap="round" stroke-linejoin="round"/>
<path d="M246.921 203.797V209.677" stroke="#BBC6CC" stroke-width="8" stroke-miterlimit="10" stroke-linecap="round" stroke-linejoin="round"/>
<path d="M257.798 202.621V210.927" stroke="#BBC6CC" stroke-width="8" stroke-miterlimit="10" stroke-linecap="round" stroke-linejoin="round"/>
<path d="M268.749 201.372V212.177" stroke="#BBC6CC" stroke-width="8" stroke-miterlimit="10" stroke-linecap="round" stroke-linejoin="round"/>
<path d="M312.332 201.592V207.472" stroke="#430B48" stroke-width="8" stroke-miterlimit="10" stroke-linecap="round" stroke-linejoin="round"/>
<path d="M301.38 200.416V208.722" stroke="#430B48" stroke-width="8" stroke-miterlimit="10" stroke-linecap="round" stroke-linejoin="round"/>
<path d="M290.503 199.167V209.972" stroke="#430B48" stroke-width="8" stroke-miterlimit="10" stroke-linecap="round" stroke-linejoin="round"/>
<path d="M279.626 197.916V211.147" stroke="#430B48" stroke-width="8" stroke-miterlimit="10" stroke-linecap="round" stroke-linejoin="round"/>
<path d="M246.921 201.592V207.472" stroke="#430B48" stroke-width="8" stroke-miterlimit="10" stroke-linecap="round" stroke-linejoin="round"/>
<path d="M257.798 200.416V208.722" stroke="#430B48" stroke-width="8" stroke-miterlimit="10" stroke-linecap="round" stroke-linejoin="round"/>
<path d="M268.749 199.167V209.972" stroke="#430B48" stroke-width="8" stroke-miterlimit="10" stroke-linecap="round" stroke-linejoin="round"/>
<path d="M291.465 227.613H267.787V259.956H291.465V227.613Z" fill="#CFC3D8"/>
<path d="M291.465 227.613H267.787V239.668H291.465V227.613Z" fill="#430B48"/>
<path d="M291.465 227.613H267.787V259.956H291.465V227.613Z" stroke="#430B48" stroke-width="8" stroke-miterlimit="10" stroke-linecap="round" stroke-linejoin="round"/>
<path d="M379.963 338.679C366.348 375.432 343.41 407.701 314.034 432.693C294.277 449.525 264.975 449.525 245.219 432.693C215.843 407.701 192.904 375.432 179.289 338.679C168.56 309.792 184.691 278.111 214.363 269.364C235.007 263.263 256.91 259.955 279.626 259.955C302.342 259.955 324.171 263.263 344.889 269.364C374.561 278.111 390.692 309.792 379.963 338.679Z" fill="#E0E0E0"/>
<path d="M379.963 338.679C366.348 375.432 343.41 407.701 314.034 432.693C294.277 449.525 264.975 449.525 245.219 432.693C215.843 407.701 192.904 375.432 179.289 338.679C168.56 309.792 184.691 278.111 214.363 269.364C235.007 263.263 256.91 259.955 279.626 259.955C302.342 259.955 324.171 263.263 344.889 269.364C374.561 278.111 390.692 309.792 379.963 338.679Z" fill="#E0E0E0"/>
<path d="M214.363 275.244C235.008 269.143 256.91 265.836 279.627 265.836C302.343 265.836 324.171 269.143 344.89 275.244C367.31 281.86 381.961 301.486 383.219 323.17C384.551 299.28 369.308 276.567 344.89 269.364C324.245 263.263 302.343 259.955 279.627 259.955C256.91 259.955 235.082 263.263 214.363 269.364C189.945 276.567 174.702 299.28 176.034 323.17C177.292 301.559 191.943 281.86 214.363 275.244Z" fill="white"/>
<path d="M315.588 407.627C294.943 424.46 264.235 424.46 243.591 407.627C213.845 383.444 190.463 352.498 176.034 317.289C175.664 324.346 176.626 331.623 179.289 338.679C192.904 375.432 215.843 407.701 245.219 432.692C264.975 449.525 294.277 449.525 314.034 432.692C343.41 407.701 366.348 375.432 379.963 338.679C382.627 331.623 383.589 324.346 383.219 317.289C368.79 352.498 345.334 383.444 315.588 407.627Z" fill="#CFC3D8"/>
<path d="M379.963 338.679C366.348 375.432 343.41 407.701 314.034 432.693C294.277 449.525 264.975 449.525 245.219 432.693C215.843 407.701 192.904 375.432 179.289 338.679C168.56 309.792 184.691 278.111 214.363 269.364C235.007 263.263 256.91 259.955 279.626 259.955C302.342 259.955 324.171 263.263 344.889 269.364C374.561 278.111 390.692 309.792 379.963 338.679Z" stroke="#430B48" stroke-width="8" stroke-miterlimit="10" stroke-linecap="round" stroke-linejoin="round"/>
<path d="M312.406 355.439H246.773C242.037 355.439 238.115 351.617 238.115 346.839V316.922C238.115 312.218 241.963 308.322 246.773 308.322H312.406C317.142 308.322 321.063 312.145 321.063 316.922V346.839C321.063 351.617 317.216 355.439 312.406 355.439Z" fill="url(#paint0_linear_470_6511)"/>
<path d="M238.189 342.208L248.622 324.419L257.058 349.264L268.971 322.288L278.22 341.693L284.88 316.701L297.015 349.264L307.892 322.655L321.063 341.693" stroke="#3A3A3A" stroke-width="4" stroke-miterlimit="10" stroke-linecap="round" stroke-linejoin="round"/>
<path opacity="0.3" d="M313.59 323.17H245.589C241.445 323.17 238.115 319.863 238.115 315.746C238.115 311.63 241.445 308.322 245.589 308.322H313.59C317.734 308.322 321.063 311.63 321.063 315.746C321.063 319.863 317.734 323.17 313.59 323.17Z" fill="white"/>
<path d="M312.406 355.439H246.773C242.037 355.439 238.115 351.617 238.115 346.839V316.922C238.115 312.218 241.963 308.322 246.773 308.322H312.406C317.142 308.322 321.063 312.145 321.063 316.922V346.839C321.063 351.617 317.216 355.439 312.406 355.439Z" stroke="#430B48" stroke-width="6" stroke-miterlimit="10" stroke-linecap="round" stroke-linejoin="round"/>
<path d="M279.626 89.423C285.143 89.423 289.615 87.5803 289.615 85.3067C289.615 83.0332 285.143 81.1904 279.626 81.1904C274.109 81.1904 269.637 83.0332 269.637 85.3067C269.637 87.5803 274.109 89.423 279.626 89.423Z" fill="white"/>
<path d="M278.664 157.709C281.238 157.709 283.326 156.097 283.326 154.108C283.326 152.119 281.238 150.506 278.664 150.506C276.09 150.506 274.002 152.119 274.002 154.108C274.002 156.097 276.09 157.709 278.664 157.709Z" fill="#E6EEF1"/>
<path d="M400.534 157.783C402.659 157.783 404.381 156.466 404.381 154.843C404.381 153.219 402.659 151.902 400.534 151.902C398.409 151.902 396.686 153.219 396.686 154.843C396.686 156.466 398.409 157.783 400.534 157.783Z" fill="white"/>
<path d="M158.719 157.783C160.844 157.783 162.567 156.466 162.567 154.843C162.567 153.219 160.844 151.902 158.719 151.902C156.594 151.902 154.871 153.219 154.871 154.843C154.871 156.466 156.594 157.783 158.719 157.783Z" fill="white"/>
<path d="M280.07 380.725C284.852 380.725 288.727 376.874 288.727 372.125C288.727 367.375 284.852 363.524 280.07 363.524C275.288 363.524 271.413 367.375 271.413 372.125C271.413 376.874 275.288 380.725 280.07 380.725Z" fill="#CFC3D8"/>
<path d="M280.07 380.725C284.852 380.725 288.727 376.874 288.727 372.125C288.727 367.375 284.852 363.524 280.07 363.524C275.288 363.524 271.413 367.375 271.413 372.125C271.413 376.874 275.288 380.725 280.07 380.725Z" stroke="#430B48" stroke-width="4" stroke-miterlimit="10" stroke-linecap="round" stroke-linejoin="round"/>
<path d="M284.88 370.361L283.918 368.744C283.77 368.523 283.474 368.376 283.178 368.523C282.364 368.964 281.402 368.376 281.402 367.494C281.402 367.2 281.18 366.979 280.884 366.979H279.034C278.738 366.979 278.516 367.2 278.516 367.494C278.516 368.376 277.554 368.964 276.74 368.523C276.518 368.376 276.148 368.45 276 368.744L275.038 370.361C274.89 370.581 274.964 370.949 275.26 371.096C276.074 371.537 276.074 372.639 275.26 373.08C275.038 373.227 274.89 373.521 275.038 373.815L276 375.433C276.148 375.653 276.444 375.8 276.74 375.653C277.554 375.212 278.516 375.8 278.516 376.682C278.516 376.976 278.738 377.197 279.034 377.197H280.884C281.18 377.197 281.402 376.976 281.402 376.682C281.402 375.8 282.364 375.212 283.178 375.653C283.4 375.8 283.77 375.727 283.918 375.433L284.88 373.815C285.028 373.595 284.954 373.227 284.658 373.08C283.844 372.639 283.844 371.537 284.658 371.096C284.954 370.949 285.028 370.655 284.88 370.361Z" fill="#430B48"/>
<path d="M158 37.7487C158 46.5986 151.552 55.2309 139.765 61.8226C128.076 68.3598 111.725 72.4973 93.5 72.4973C75.2752 72.4973 58.9239 68.3598 47.2346 61.8226C35.4477 55.2309 29 46.5986 29 37.7487C29 28.8987 35.4477 20.2664 47.2346 13.6747C58.9239 7.13755 75.2752 3 93.5 3C111.725 3 128.076 7.13755 139.765 13.6747C151.552 20.2664 158 28.8987 158 37.7487Z" fill="#E3E3E3" stroke="#430B48" stroke-width="6"/>
<ellipse cx="98.5" cy="37.2526" rx="56.5" ry="31.2917" fill="#F7F7F7"/>
<path d="M153 67.0532C153 68.5957 153.847 70.1601 155.552 71.4117C157.255 72.6625 159.705 73.4969 162.5 73.4969C165.295 73.4969 167.745 72.6625 169.448 71.4117C171.153 70.1601 172 68.5957 172 67.0532C172 65.5106 171.153 63.9462 169.448 62.6946C167.745 61.4438 165.295 60.6094 162.5 60.6094C159.705 60.6094 157.255 61.4438 155.552 62.6946C153.847 63.9462 153 65.5106 153 67.0532Z" fill="#F7F7F7" stroke="#430B48" stroke-width="4"/>
<path d="M179 79.4701C179 80.233 179.467 81.1742 180.74 82.0172C181.998 82.8501 183.852 83.4304 186 83.4304C188.148 83.4304 190.002 82.8501 191.26 82.0172C192.533 81.1742 193 80.233 193 79.4701C193 78.7072 192.533 77.766 191.26 76.923C190.002 76.0901 188.148 75.5098 186 75.5098C183.852 75.5098 181.998 76.0901 180.74 76.923C179.467 77.766 179 78.7072 179 79.4701Z" fill="#F7F7F7" stroke="#430B48" stroke-width="4"/>
<path d="M73.7589 40.8964C73.7589 40.0699 73.9429 39.3865 74.3109 38.846C74.6949 38.3056 75.2469 37.7096 75.9669 37.058C76.4949 36.5811 76.8789 36.1838 77.1189 35.8659C77.3749 35.5321 77.5029 35.1586 77.5029 34.7453C77.5029 34.1573 77.2629 33.6963 76.7829 33.3626C76.3189 33.0129 75.6949 32.838 74.9109 32.838C74.1589 32.838 73.4869 32.997 72.8949 33.3149C72.3189 33.6169 71.8309 34.046 71.4309 34.6023L68.5269 32.9096C69.1989 31.8923 70.1029 31.1056 71.2389 30.5493C72.3909 29.993 73.7509 29.7148 75.3189 29.7148C77.1589 29.7148 78.6309 30.1043 79.7349 30.8831C80.8549 31.6619 81.4149 32.7427 81.4149 34.1255C81.4149 34.7771 81.3029 35.3493 81.0789 35.842C80.8709 36.3348 80.6069 36.756 80.2869 37.1056C79.9829 37.4394 79.5829 37.8288 79.0869 38.2739C78.4949 38.7984 78.0629 39.2434 77.7909 39.609C77.5189 39.9586 77.3829 40.3878 77.3829 40.8964H73.7589ZM75.5829 46.8806C74.9269 46.8806 74.3749 46.6739 73.9269 46.2607C73.4949 45.8315 73.2789 45.315 73.2789 44.711C73.2789 44.107 73.4949 43.6064 73.9269 43.209C74.3589 42.7958 74.9109 42.5891 75.5829 42.5891C76.2549 42.5891 76.8069 42.7958 77.2389 43.209C77.6709 43.6064 77.8869 44.107 77.8869 44.711C77.8869 45.315 77.6629 45.8315 77.2149 46.2607C76.7829 46.6739 76.2389 46.8806 75.5829 46.8806Z" fill="#E74753"/>
<path d="M84.6324 46.8806C83.9764 46.8806 83.4244 46.658 82.9764 46.213C82.5284 45.768 82.3044 45.2117 82.3044 44.5441C82.3044 43.8607 82.5284 43.3123 82.9764 42.8991C83.4244 42.4699 83.9764 42.2553 84.6324 42.2553C85.2884 42.2553 85.8404 42.4699 86.2884 42.8991C86.7364 43.3123 86.9604 43.8607 86.9604 44.5441C86.9604 45.2117 86.7364 45.768 86.2884 46.213C85.8404 46.658 85.2884 46.8806 84.6324 46.8806Z" fill="#E74753"/>
<path d="M91.6417 40.8964C91.6417 40.0699 91.8257 39.3865 92.1937 38.846C92.5777 38.3056 93.1297 37.7096 93.8497 37.058C94.3777 36.5811 94.7617 36.1838 95.0017 35.8659C95.2577 35.5321 95.3857 35.1586 95.3857 34.7453C95.3857 34.1573 95.1457 33.6963 94.6657 33.3626C94.2017 33.0129 93.5777 32.838 92.7937 32.838C92.0417 32.838 91.3697 32.997 90.7777 33.3149C90.2017 33.6169 89.7137 34.046 89.3137 34.6023L86.4097 32.9096C87.0817 31.8923 87.9857 31.1056 89.1217 30.5493C90.2737 29.993 91.6337 29.7148 93.2017 29.7148C95.0417 29.7148 96.5137 30.1043 97.6177 30.8831C98.7377 31.6619 99.2977 32.7427 99.2977 34.1255C99.2977 34.7771 99.1857 35.3493 98.9617 35.842C98.7537 36.3348 98.4897 36.756 98.1697 37.1056C97.8657 37.4394 97.4657 37.8288 96.9697 38.2739C96.3777 38.7984 95.9457 39.2434 95.6737 39.609C95.4017 39.9586 95.2657 40.3878 95.2657 40.8964H91.6417ZM93.4657 46.8806C92.8097 46.8806 92.2577 46.6739 91.8097 46.2607C91.3777 45.8315 91.1617 45.315 91.1617 44.711C91.1617 44.107 91.3777 43.6064 91.8097 43.209C92.2417 42.7958 92.7937 42.5891 93.4657 42.5891C94.1377 42.5891 94.6897 42.7958 95.1217 43.209C95.5537 43.6064 95.7697 44.107 95.7697 44.711C95.7697 45.315 95.5457 45.8315 95.0977 46.2607C94.6657 46.6739 94.1217 46.8806 93.4657 46.8806Z" fill="#E74753"/>
<path d="M102.515 46.8806C101.859 46.8806 101.307 46.658 100.859 46.213C100.411 45.768 100.187 45.2117 100.187 44.5441C100.187 43.8607 100.411 43.3123 100.859 42.8991C101.307 42.4699 101.859 42.2553 102.515 42.2553C103.171 42.2553 103.723 42.4699 104.171 42.8991C104.619 43.3123 104.843 43.8607 104.843 44.5441C104.843 45.2117 104.619 45.768 104.171 46.213C103.723 46.658 103.171 46.8806 102.515 46.8806Z" fill="#E74753"/>
<path d="M109.524 40.8964C109.524 40.0699 109.708 39.3865 110.076 38.846C110.46 38.3056 111.012 37.7096 111.732 37.058C112.26 36.5811 112.644 36.1838 112.884 35.8659C113.14 35.5321 113.268 35.1586 113.268 34.7453C113.268 34.1573 113.028 33.6963 112.548 33.3626C112.084 33.0129 111.46 32.838 110.676 32.838C109.924 32.838 109.252 32.997 108.66 33.3149C108.084 33.6169 107.596 34.046 107.196 34.6023L104.292 32.9096C104.964 31.8923 105.868 31.1056 107.004 30.5493C108.156 29.993 109.516 29.7148 111.084 29.7148C112.924 29.7148 114.396 30.1043 115.5 30.8831C116.62 31.6619 117.18 32.7427 117.18 34.1255C117.18 34.7771 117.068 35.3493 116.844 35.842C116.636 36.3348 116.372 36.756 116.052 37.1056C115.748 37.4394 115.348 37.8288 114.852 38.2739C114.26 38.7984 113.828 39.2434 113.556 39.609C113.284 39.9586 113.148 40.3878 113.148 40.8964H109.524ZM111.348 46.8806C110.692 46.8806 110.14 46.6739 109.692 46.2607C109.26 45.8315 109.044 45.315 109.044 44.711C109.044 44.107 109.26 43.6064 109.692 43.209C110.124 42.7958 110.676 42.5891 111.348 42.5891C112.02 42.5891 112.572 42.7958 113.004 43.209C113.436 43.6064 113.652 44.107 113.652 44.711C113.652 45.315 113.428 45.8315 112.98 46.2607C112.548 46.6739 112.004 46.8806 111.348 46.8806Z" fill="#E74753"/>
<defs>
<linearGradient id="paint0_linear_470_6511" x1="279.617" y1="355.428" x2="279.617" y2="308.385" gradientUnits="userSpaceOnUse">
<stop stop-color="#57AA63"/>
<stop offset="1" stop-color="#9AA642"/>
</linearGradient>
</defs>
</svg>
