<svg width="571" height="400" viewBox="0 0 571 400" fill="none" xmlns="http://www.w3.org/2000/svg">
<path fill-rule="evenodd" clip-rule="evenodd" d="M333.408 400V125.871L331.725 115.77C319.851 43.7847 270.872 0 202.597 0C156.586 0 131.354 20.0371 119.481 31.1689L96.4751 120.222L96.0669 121.496V127.12V190.914L96.4751 188.497C98.7015 127.644 123.191 88.3116 172.171 88.3116C220.408 88.3116 237.477 128.386 237.477 169.202V400H333.408Z" fill="#E3E0B0"/>
<path fill-rule="evenodd" clip-rule="evenodd" d="M570.749 400V125.871L569.066 115.77C557.192 43.7847 508.213 0 439.938 0C393.927 0 368.695 20.0371 356.821 31.1689L333.816 120.222L333.408 121.496V127.12V190.914L333.816 188.497C336.042 127.644 360.532 88.3116 409.512 88.3116C457.749 88.3116 474.818 128.386 474.818 169.202V400H570.749Z" fill="#EB7580"/>
<path fill-rule="evenodd" clip-rule="evenodd" d="M96.0667 14.0999H0V400H96.0667V14.0999Z" fill="#2B3D4A"/>
</svg>
